<svg width="1280" height="720" viewBox="0 0 1280 720" fill="none" xmlns="http://www.w3.org/2000/svg" role="img" aria-labelledby="title desc">
  <title id="title">Dot[9] demo preview</title>
  <desc id="desc">A stylized preview of Dot[9] showing its settings window beside a game overlay with edge dots, a centre point, horizon line, and gentle vignette.</desc>
  <defs>
    <linearGradient id="bg" x1="0" y1="0" x2="1280" y2="720" gradientUnits="userSpaceOnUse">
      <stop stop-color="#101417"/>
      <stop offset="1" stop-color="#171D22"/>
    </linearGradient>
    <linearGradient id="screen" x1="472" y1="142" x2="1188" y2="596" gradientUnits="userSpaceOnUse">
      <stop stop-color="#27313A"/>
      <stop offset="0.48" stop-color="#141A1F"/>
      <stop offset="1" stop-color="#06080B"/>
    </linearGradient>
    <radialGradient id="vignette" cx="0" cy="0" r="1" gradientUnits="userSpaceOnUse" gradientTransform="translate(830 358) rotate(90) scale(314 484)">
      <stop offset="0.42" stop-color="#020609" stop-opacity="0"/>
      <stop offset="1" stop-color="#020609" stop-opacity="0.72"/>
    </radialGradient>
    <filter id="shadow" x="-20%" y="-20%" width="140%" height="140%" color-interpolation-filters="sRGB">
      <feDropShadow dx="0" dy="22" stdDeviation="26" flood-color="#020609" flood-opacity="0.45"/>
    </filter>
    <filter id="softGlow" x="-100%" y="-100%" width="300%" height="300%" color-interpolation-filters="sRGB">
      <feGaussianBlur stdDeviation="5"/>
    </filter>
  </defs>

  <rect width="1280" height="720" fill="url(#bg)"/>
  <circle cx="1120" cy="78" r="124" fill="#87D8E8" opacity="0.08"/>
  <circle cx="144" cy="650" r="180" fill="#B8A4FF" opacity="0.06"/>

  <g filter="url(#shadow)">
    <rect x="58" y="58" width="348" height="604" rx="22" fill="#1A1F24" stroke="#34404A"/>
    <text x="88" y="112" fill="#F4F7FA" font-family="Segoe UI, Arial, sans-serif" font-size="36" font-weight="700">Dot[9]</text>
    <text x="88" y="142" fill="#AAB4BF" font-family="Segoe UI, Arial, sans-serif" font-size="16">Give your eyes somewhere still to land.</text>

    <rect x="88" y="184" width="288" height="72" rx="12" fill="#232A31" stroke="#34404A"/>
    <text x="112" y="216" fill="#AAB4BF" font-family="Segoe UI, Arial, sans-serif" font-size="14">Overlay</text>
    <text x="112" y="244" fill="#F4F7FA" font-family="Segoe UI, Arial, sans-serif" font-size="28" font-weight="700">On</text>
    <rect x="292" y="204" width="56" height="30" rx="15" fill="#87D8E8"/>
    <circle cx="332" cy="219" r="11" fill="#071014"/>

    <text x="88" y="304" fill="#F4F7FA" font-family="Segoe UI, Arial, sans-serif" font-size="22" font-weight="700">Comfort tuning</text>
    <g font-family="Segoe UI, Arial, sans-serif" font-size="15">
      <text x="88" y="348" fill="#F4F7FA">Show edge dots</text>
      <rect x="338" y="330" width="20" height="20" rx="4" fill="#87D8E8"/>
      <path d="M342 340.5L347 345.5L356 335.5" stroke="#071014" stroke-width="2.5" stroke-linecap="round" stroke-linejoin="round"/>

      <text x="88" y="394" fill="#F4F7FA">Show centre point</text>
      <rect x="338" y="376" width="20" height="20" rx="4" fill="#87D8E8"/>
      <path d="M342 386.5L347 391.5L356 381.5" stroke="#071014" stroke-width="2.5" stroke-linecap="round" stroke-linejoin="round"/>

      <text x="88" y="440" fill="#F4F7FA">Show horizon line</text>
      <rect x="338" y="422" width="20" height="20" rx="4" fill="#87D8E8"/>
      <path d="M342 432.5L347 437.5L356 427.5" stroke="#071014" stroke-width="2.5" stroke-linecap="round" stroke-linejoin="round"/>
    </g>

    <text x="88" y="502" fill="#AAB4BF" font-family="Segoe UI, Arial, sans-serif" font-size="14">Dot opacity</text>
    <rect x="88" y="522" width="288" height="6" rx="3" fill="#34404A"/>
    <rect x="88" y="522" width="148" height="6" rx="3" fill="#87D8E8"/>
    <circle cx="236" cy="525" r="12" fill="#F4F7FA"/>

    <text x="88" y="570" fill="#AAB4BF" font-family="Segoe UI, Arial, sans-serif" font-size="14">Horizon opacity</text>
    <rect x="88" y="590" width="288" height="6" rx="3" fill="#34404A"/>
    <rect x="88" y="590" width="112" height="6" rx="3" fill="#87D8E8"/>
    <circle cx="200" cy="593" r="12" fill="#F4F7FA"/>
  </g>

  <g filter="url(#shadow)">
    <rect x="450" y="96" width="770" height="528" rx="26" fill="#0E1114" stroke="#34404A" stroke-width="2"/>
    <rect x="474" y="122" width="722" height="476" rx="18" fill="url(#screen)" stroke="#526171"/>
    <rect x="474" y="122" width="722" height="476" rx="18" fill="url(#vignette)"/>

    <path d="M492 476C590 398 660 412 742 466C822 520 908 488 1010 376C1078 302 1130 294 1180 332V598H492V476Z" fill="#0B1116" opacity="0.72"/>
    <path d="M488 474C590 392 665 406 744 460C826 516 914 478 1010 370C1076 296 1135 286 1184 326" stroke="#34404A" stroke-width="2" opacity="0.8"/>
    <path d="M520 416C626 360 730 352 840 386C946 418 1038 402 1152 344" stroke="#526171" stroke-width="2" opacity="0.35"/>

    <g fill="#B8A4FF">
      <circle cx="512" cy="164" r="4" opacity="0.72"/>
      <circle cx="512" cy="212" r="4" opacity="0.72"/>
      <circle cx="512" cy="260" r="4" opacity="0.72"/>
      <circle cx="512" cy="308" r="4" opacity="0.72"/>
      <circle cx="512" cy="356" r="4" opacity="0.72"/>
      <circle cx="512" cy="404" r="4" opacity="0.72"/>
      <circle cx="512" cy="452" r="4" opacity="0.72"/>
      <circle cx="512" cy="500" r="4" opacity="0.72"/>
      <circle cx="512" cy="548" r="4" opacity="0.72"/>
      <circle cx="1158" cy="164" r="4" opacity="0.72"/>
      <circle cx="1158" cy="212" r="4" opacity="0.72"/>
      <circle cx="1158" cy="260" r="4" opacity="0.72"/>
      <circle cx="1158" cy="308" r="4" opacity="0.72"/>
      <circle cx="1158" cy="356" r="4" opacity="0.72"/>
      <circle cx="1158" cy="404" r="4" opacity="0.72"/>
      <circle cx="1158" cy="452" r="4" opacity="0.72"/>
      <circle cx="1158" cy="500" r="4" opacity="0.72"/>
      <circle cx="1158" cy="548" r="4" opacity="0.72"/>
    </g>

    <g stroke="#87D8E8" stroke-width="2" opacity="0.72">
      <line x1="602" y1="362" x2="782" y2="362"/>
      <line x1="888" y1="362" x2="1068" y2="362"/>
    </g>
    <g stroke="#F4F7FA" stroke-width="2" opacity="0.64">
      <line x1="825" y1="346" x2="845" y2="346"/>
      <line x1="835" y1="336" x2="835" y2="356"/>
    </g>
    <circle cx="835" cy="346" r="18" stroke="#F4F7FA" stroke-width="1.3" opacity="0.28"/>
  </g>

  <g font-family="Segoe UI, Arial, sans-serif">
    <text x="474" y="666" fill="#F4F7FA" font-size="24" font-weight="700">Stable visual anchors for motion-heavy games</text>
    <text x="474" y="696" fill="#AAB4BF" font-size="16">Edge dots, centre point, horizon line, vignette, monitor targeting, hotkeys, and tray controls.</text>
  </g>
</svg>
